<?xml version="1.0" encoding="UTF-8"?>
<svg xmlns="http://www.w3.org/2000/svg" width="1280" height="720" viewBox="0 0 1280 720" role="img" aria-label="EGFR Experimental Binding KD KD by expression">
<rect width="100%" height="100%" fill="#FFFFFF"/>
<style><![CDATA[
text { font-family: Arial, Helvetica, sans-serif; fill: #1F2933; }
.subtitle { font-size: 15px; fill: #4B5563; }
.axis-label { font-size: 18px; font-weight: 600; }
.tick { font-size: 14px; fill: #4B5563; }
.variant { font-size: 13px; fill: #2D3748; }
.mask-rate { font-size: 11px; fill: #667085; }
.legend-title { font-size: 16px; font-weight: 700; }
.legend { font-size: 14px; fill: #2D3748; }
.template-label { font-size: 14px; font-weight: 700; fill: #374151; }
.grid { stroke: #E5E7EB; stroke-width: 1; }
.axis { stroke: #374151; stroke-width: 1.5; }
]]></style>
<text class="subtitle" x="92" y="42">KD in nM on log scale; lower is better</text>
<line class="grid" x1="92" x2="1050" y1="572" y2="572"/>
<text class="tick" x="80" y="577" text-anchor="end">0.10</text>
<line class="grid" x1="92" x2="1050" y1="437.368" y2="437.368"/>
<text class="tick" x="80" y="442.368" text-anchor="end">1.00</text>
<line class="grid" x1="92" x2="1050" y1="302.736" y2="302.736"/>
<text class="tick" x="80" y="307.736" text-anchor="end">10.0</text>
<line class="grid" x1="92" x2="1050" y1="168.104" y2="168.104"/>
<text class="tick" x="80" y="173.104" text-anchor="end">100</text>
<line class="grid" x1="92" x2="1050" y1="74" y2="74"/>
<text class="tick" x="80" y="79" text-anchor="end">500</text>
<line class="axis" x1="92" x2="92" y1="74" y2="572"/>
<line class="axis" x1="92" x2="1050" y1="572" y2="572"/>
<line x1="92" x2="1050" y1="426.355" y2="426.355" stroke="#374151" stroke-width="2" stroke-dasharray="4 7"/>
<text class="template-label" x="1062" y="416.355">Template KD 1.21 nM</text>
<rect x="108.545" y="446.106" width="54" height="125.894" fill="#D89C2B" rx="2"/>
<text class="tick" x="135.545" y="438" text-anchor="middle">0.86</text>
<g transform="translate(135.545 588) rotate(-45)">
<text class="variant" text-anchor="end">dsm_egfr_10</text>
<text class="mask-rate" y="15" text-anchor="end">mask-rate: 0.02</text>
</g>
<rect x="195.636" y="403.535" width="54" height="168.465" fill="#D89C2B" rx="2"/>
<text class="tick" x="222.636" y="396" text-anchor="middle">1.78</text>
<g transform="translate(222.636 588) rotate(-45)">
<text class="variant" text-anchor="end">dsm_egfr_16</text>
<text class="mask-rate" y="15" text-anchor="end">mask-rate: 0.05</text>
</g>
<rect x="282.727" y="392.666" width="54" height="179.334" fill="#2F6F9F" rx="2"/>
<text class="tick" x="309.727" y="385" text-anchor="middle">2.15</text>
<g transform="translate(309.727 588) rotate(-45)">
<text class="variant" text-anchor="end">dsm_egfr_18</text>
<text class="mask-rate" y="15" text-anchor="end">mask-rate: 0.06</text>
</g>
<rect x="369.818" y="385.621" width="54" height="186.379" fill="#D89C2B" rx="2"/>
<text class="tick" x="396.818" y="378" text-anchor="middle">2.42</text>
<g transform="translate(396.818 588) rotate(-45)">
<text class="variant" text-anchor="end">dsm_egfr_11</text>
<text class="mask-rate" y="15" text-anchor="end">mask-rate: 0.02</text>
</g>
<rect x="456.909" y="384.983" width="54" height="187.017" fill="#7A5AA6" rx="2"/>
<text class="tick" x="483.909" y="377" text-anchor="middle">2.45</text>
<g transform="translate(483.909 588) rotate(-45)">
<text class="variant" text-anchor="end">dsm_egfr_12</text>
<text class="mask-rate" y="15" text-anchor="end">mask-rate: 0.08</text>
</g>
<rect x="544" y="368.392" width="54" height="203.608" fill="#D89C2B" rx="2"/>
<text class="tick" x="571" y="360" text-anchor="middle">3.25</text>
<g transform="translate(571 588) rotate(-45)">
<text class="variant" text-anchor="end">dsm_egfr_5</text>
<text class="mask-rate" y="15" text-anchor="end">mask-rate: 0.05</text>
</g>
<rect x="631.091" y="252.019" width="54" height="319.981" fill="#D89C2B" rx="2"/>
<text class="tick" x="658.091" y="244" text-anchor="middle">23.8</text>
<g transform="translate(658.091 588) rotate(-45)">
<text class="variant" text-anchor="end">dsm_egfr_3</text>
<text class="mask-rate" y="15" text-anchor="end">mask-rate: 0.02</text>
</g>
<rect x="718.182" y="244.118" width="54" height="327.882" fill="#D89C2B" rx="2"/>
<text class="tick" x="745.182" y="236" text-anchor="middle">27.3</text>
<g transform="translate(745.182 588) rotate(-45)">
<text class="variant" text-anchor="end">dsm_egfr_17</text>
<text class="mask-rate" y="15" text-anchor="end">mask-rate: 0.04</text>
</g>
<rect x="805.273" y="210.053" width="54" height="361.947" fill="#2F6F9F" rx="2"/>
<text class="tick" x="832.273" y="202" text-anchor="middle">48.8</text>
<g transform="translate(832.273 588) rotate(-45)">
<text class="variant" text-anchor="end">dsm_egfr_8</text>
<text class="mask-rate" y="15" text-anchor="end">mask-rate: 0.07</text>
</g>
<rect x="892.364" y="209.908" width="54" height="362.092" fill="#7A5AA6" rx="2"/>
<text class="tick" x="919.364" y="202" text-anchor="middle">48.9</text>
<g transform="translate(919.364 588) rotate(-45)">
<text class="variant" text-anchor="end">dsm_egfr_14</text>
<text class="mask-rate" y="15" text-anchor="end">mask-rate: 0.03</text>
</g>
<rect x="979.455" y="123.97" width="54" height="448.03" fill="#D89C2B" rx="2"/>
<text class="tick" x="1006.455" y="116" text-anchor="middle">213</text>
<g transform="translate(1006.455 588) rotate(-45)">
<text class="variant" text-anchor="end">dsm_egfr_4</text>
<text class="mask-rate" y="15" text-anchor="end">mask-rate: 0.04</text>
</g>
<g transform="translate(28 323) rotate(-90)">
<text class="axis-label" text-anchor="middle">KD (nM, log scale; lower is better)</text>
</g>
<text class="axis-label" x="571" y="696" text-anchor="middle">Variants, best to worst KD</text>
<text class="legend-title" x="1078" y="104">Expression</text>
<rect x="1078" y="117" width="15" height="15" fill="#2F6F9F" rx="2"/>
<text class="legend" x="1102" y="130">Medium</text>
<rect x="1078" y="141" width="15" height="15" fill="#D89C2B" rx="2"/>
<text class="legend" x="1102" y="154">Low</text>
<rect x="1078" y="165" width="15" height="15" fill="#7A5AA6" rx="2"/>
<text class="legend" x="1102" y="178">Mixed</text>
</svg>
